<svg alt="Grocery Bag" class="container__image" version="1.1" xmlns="http://www.w3.org/2000/svg" xmlns:xlink="http://www.w3.org/1999/xlink" width="200px" height="200px" viewBox="0,0,256,256"><g fill="none" fill-rule="nonzero" stroke="none" stroke-width="1" stroke-linecap="butt" stroke-linejoin="miter" stroke-miterlimit="10" stroke-dasharray="" stroke-dashoffset="0" font-family="none" font-weight="none" font-size="none" text-anchor="none" style="mix-blend-mode: normal"><g transform="scale(2.56,2.56)"><path d="M77,12c-0.55228,0 -1,0.44772 -1,1c0,0.55228 0.44772,1 1,1c0.55228,0 1,-0.44772 1,-1c0,-0.55228 -0.44772,-1 -1,-1z" fill="#f1bc19"></path><path d="M50,13c-20.43454,0 -37,16.56546 -37,37c0,20.43454 16.56546,37 37,37c20.43454,0 37,-16.56546 37,-37c0,-20.43454 -16.56546,-37 -37,-37z" fill-opacity="0" fill="#edf9e4"></path><path d="M83,11c-2.20914,0 -4,1.79086 -4,4c0,2.20914 1.79086,4 4,4c2.20914,0 4,-1.79086 4,-4c0,-2.20914 -1.79086,-4 -4,-4z" fill="#f1bc19"></path><path d="M87,22c-1.10457,0 -2,0.89543 -2,2c0,1.10457 0.89543,2 2,2c1.10457,0 2,-0.89543 2,-2c0,-1.10457 -0.89543,-2 -2,-2z" fill="#8889b9"></path><path d="M81,74c-1.10457,0 -2,0.89543 -2,2c0,1.10457 0.89543,2 2,2c1.10457,0 2,-0.89543 2,-2c0,-1.10457 -0.89543,-2 -2,-2zM15,59c-2.20914,0 -4,1.79086 -4,4c0,2.20914 1.79086,4 4,4c2.20914,0 4,-1.79086 4,-4c0,-2.20914 -1.79086,-4 -4,-4z" fill="#fbcd59"></path><path d="M25,85c-1.10457,0 -2,0.89543 -2,2c0,1.10457 0.89543,2 2,2c1.10457,0 2,-0.89543 2,-2c0,-1.10457 -0.89543,-2 -2,-2z" fill="#8889b9"></path><path d="M18.5,49c-1.38071,0 -2.5,1.11929 -2.5,2.5c0,1.38071 1.11929,2.5 2.5,2.5c1.38071,0 2.5,-1.11929 2.5,-2.5c0,-1.38071 -1.11929,-2.5 -2.5,-2.5zM79.5,32c-0.82843,0 -1.5,0.67157 -1.5,1.5c0,0.82843 0.67157,1.5 1.5,1.5c0.82843,0 1.5,-0.67157 1.5,-1.5c0,-0.82843 -0.67157,-1.5 -1.5,-1.5z" fill="#ffffff"></path><path d="M66.5,53.5h-14v-13.898c0,-0.69 0.1,-1.375 0.297,-2.036l2.703,-9.066h8l2.703,9.066c0.197,0.661 0.297,1.347 0.297,2.036z" fill="#78cdd4"></path><path d="M65.736,36h-12.472l-0.467,1.566c-0.197,0.661 -0.297,1.347 -0.297,2.037v13.897h14v-13.897c0,-0.69 -0.1,-1.375 -0.297,-2.037z" fill="#ffffff"></path><path d="M66.5,54h-14c-0.276,0 -0.5,-0.224 -0.5,-0.5v-13.897c0,-0.738 0.107,-1.472 0.318,-2.179l2.703,-9.066c0.063,-0.212 0.258,-0.358 0.479,-0.358h8c0.221,0 0.416,0.146 0.479,0.357l2.703,9.066c0.211,0.708 0.318,1.441 0.318,2.18v13.897c0,0.276 -0.224,0.5 -0.5,0.5zM53,53h13v-13.397c0,-0.642 -0.093,-1.279 -0.276,-1.894l-2.597,-8.709h-7.255l-2.597,8.709c-0.182,0.614 -0.275,1.252 -0.275,1.894z" fill="#472b29"></path><path d="M54.5,26.5h10v3h-10z" fill="#ceccbe"></path><path d="M64.5,30h-10c-0.276,0 -0.5,-0.224 -0.5,-0.5v-3c0,-0.276 0.224,-0.5 0.5,-0.5h10c0.276,0 0.5,0.224 0.5,0.5v3c0,0.276 -0.224,0.5 -0.5,0.5zM55,29h9v-2h-9z" fill="#472b29"></path><path d="M40,36.5c-4.14214,0 -7.5,3.35786 -7.5,7.5c0,4.14214 3.35786,7.5 7.5,7.5c4.14214,0 7.5,-3.35786 7.5,-7.5c0,-4.14214 -3.35786,-7.5 -7.5,-7.5z" fill="#f37e98"></path><path d="M40,52c-4.411,0 -8,-3.589 -8,-8c0,-4.411 3.589,-8 8,-8c4.411,0 8,3.589 8,8c0,4.411 -3.589,8 -8,8zM40,37c-3.86,0 -7,3.141 -7,7c0,3.859 3.14,7 7,7c3.86,0 7,-3.141 7,-7c0,-3.859 -3.14,-7 -7,-7z" fill="#472b29"></path><path d="M43.307,39.854c-0.053,0 -0.105,-0.017 -0.15,-0.051c-0.916,-0.689 -2.008,-1.053 -3.157,-1.053c-0.138,0 -0.25,-0.112 -0.25,-0.25c0,-0.138 0.112,-0.25 0.25,-0.25c1.259,0 2.455,0.399 3.458,1.155c0.11,0.083 0.132,0.239 0.049,0.35c-0.049,0.065 -0.124,0.099 -0.2,0.099zM35.193,41.575c-0.042,0 -0.083,-0.01 -0.122,-0.031c-0.121,-0.067 -0.164,-0.22 -0.097,-0.341c0.732,-1.313 1.927,-2.276 3.364,-2.71c0.131,-0.041 0.271,0.034 0.312,0.167c0.04,0.132 -0.035,0.271 -0.167,0.312c-1.312,0.396 -2.403,1.275 -3.072,2.476c-0.045,0.081 -0.13,0.127 -0.218,0.127zM34.5,44.25c-0.138,0 -0.25,-0.112 -0.25,-0.25c0,-0.565 0.082,-1.124 0.244,-1.661c0.04,-0.133 0.179,-0.207 0.312,-0.167c0.132,0.04 0.207,0.179 0.167,0.312c-0.147,0.49 -0.222,1 -0.222,1.517c-0.001,0.137 -0.113,0.249 -0.251,0.249z" fill="#472b29"></path><path d="M60.615,52.1l-13.911,5.366c-1.054,0.407 -2.238,-0.118 -2.644,-1.172l-3.846,-9.971c-0.406,-1.054 0.118,-2.238 1.172,-2.644l13.911,-5.366c1.054,-0.407 2.238,0.118 2.644,1.172l3.846,9.971c0.406,1.053 -0.119,2.237 -1.172,2.644z" fill="#f9e65c"></path><path d="M45.971,58.103c-1.022,0 -1.989,-0.62 -2.378,-1.629l-3.846,-9.972c-0.505,-1.309 0.149,-2.784 1.458,-3.291l13.911,-5.365c0.634,-0.245 1.326,-0.228 1.947,0.048c0.621,0.276 1.099,0.776 1.343,1.411l3.846,9.972c0.245,0.634 0.228,1.325 -0.047,1.947c-0.275,0.621 -0.777,1.098 -1.411,1.343l-13.91,5.366c-0.3,0.115 -0.609,0.17 -0.913,0.17zM56.033,38.675c-0.188,0 -0.376,0.034 -0.557,0.104l-13.911,5.365c-0.794,0.307 -1.192,1.203 -0.885,1.998l3.846,9.972c0.307,0.794 1.202,1.189 1.999,0.885l13.91,-5.366v0c0.385,-0.148 0.689,-0.438 0.856,-0.814c0.167,-0.378 0.177,-0.797 0.029,-1.183l-3.846,-9.972c-0.149,-0.385 -0.438,-0.689 -0.816,-0.856c-0.2,-0.089 -0.412,-0.133 -0.625,-0.133z" fill="#472b29"></path><path d="M32.354,72.3c-0.873,0 -1.617,-0.654 -1.729,-1.521l-2.745,-21.079h44.24l-2.745,21.077c-0.113,0.868 -0.856,1.522 -1.729,1.522h-35.292z" fill="#60be92"></path><path d="M71.323,50.4l-2.642,20.288c-0.068,0.52 -0.513,0.913 -1.035,0.913h-35.292c-0.523,0 -0.968,-0.393 -1.035,-0.913l-2.642,-20.288h42.646M72.917,49h-45.834l2.847,21.868c0.16,1.22 1.197,2.132 2.424,2.132h35.291c1.228,0 2.265,-0.912 2.424,-2.132l2.848,-21.868z" fill="#472b29"></path><g><path d="M26.212,50.3c-0.282,0 -0.512,-0.229 -0.512,-0.512v-3.576c0,-0.282 0.229,-0.512 0.512,-0.512h47.576c0.282,0 0.512,0.229 0.512,0.512v3.576c0,0.282 -0.229,0.512 -0.512,0.512z" fill="#60be92"></path><path d="M73.6,46.4v3.2h-47.2v-3.2h47.2M73.788,45h-47.576c-0.669,0 -1.212,0.542 -1.212,1.212v3.576c0,0.67 0.543,1.212 1.212,1.212h47.576c0.669,0 1.212,-0.542 1.212,-1.212v-3.576c0,-0.67 -0.543,-1.212 -1.212,-1.212z" fill="#472b29"></path></g><g><path d="M38,67.3c-0.717,0 -1.3,-0.583 -1.3,-1.3v-10c0,-0.717 0.583,-1.3 1.3,-1.3c0.717,0 1.3,0.583 1.3,1.3v10c0,0.717 -0.583,1.3 -1.3,1.3z" fill="#00ac9c"></path><path d="M38,55.4c0.331,0 0.6,0.269 0.6,0.6v10c0,0.331 -0.269,0.6 -0.6,0.6c-0.331,0 -0.6,-0.269 -0.6,-0.6v-10c0,-0.331 0.269,-0.6 0.6,-0.6M38,54c-1.105,0 -2,0.896 -2,2v10c0,1.104 0.895,2 2,2c1.105,0 2,-0.896 2,-2v-10c0,-1.104 -0.895,-2 -2,-2z" fill="#472b29"></path></g><g><path d="M46,67.3c-0.717,0 -1.3,-0.583 -1.3,-1.3v-10c0,-0.717 0.583,-1.3 1.3,-1.3c0.717,0 1.3,0.583 1.3,1.3v10c0,0.717 -0.583,1.3 -1.3,1.3z" fill="#00ac9c"></path><path d="M46,55.4c0.331,0 0.6,0.269 0.6,0.6v10c0,0.331 -0.269,0.6 -0.6,0.6c-0.331,0 -0.6,-0.269 -0.6,-0.6v-10c0,-0.331 0.269,-0.6 0.6,-0.6M46,54c-1.105,0 -2,0.896 -2,2v10c0,1.104 0.895,2 2,2c1.105,0 2,-0.896 2,-2v-10c0,-1.104 -0.895,-2 -2,-2z" fill="#472b29"></path></g><g><path d="M54,67.3c-0.717,0 -1.3,-0.583 -1.3,-1.3v-10c0,-0.717 0.583,-1.3 1.3,-1.3c0.717,0 1.3,0.583 1.3,1.3v10c0,0.717 -0.583,1.3 -1.3,1.3z" fill="#00ac9c"></path><path d="M54,55.4c0.331,0 0.6,0.269 0.6,0.6v10c0,0.331 -0.269,0.6 -0.6,0.6c-0.331,0 -0.6,-0.269 -0.6,-0.6v-10c0,-0.331 0.269,-0.6 0.6,-0.6M54,54c-1.105,0 -2,0.896 -2,2v10c0,1.104 0.895,2 2,2c1.105,0 2,-0.896 2,-2v-10c0,-1.104 -0.895,-2 -2,-2z" fill="#472b29"></path></g><g><path d="M62,67.3c-0.717,0 -1.3,-0.583 -1.3,-1.3v-10c0,-0.717 0.583,-1.3 1.3,-1.3c0.717,0 1.3,0.583 1.3,1.3v10c0,0.717 -0.583,1.3 -1.3,1.3z" fill="#00ac9c"></path><path d="M62,55.4c0.331,0 0.6,0.269 0.6,0.6v10c0,0.331 -0.269,0.6 -0.6,0.6c-0.331,0 -0.6,-0.269 -0.6,-0.6v-10c0,-0.331 0.269,-0.6 0.6,-0.6M62,54c-1.105,0 -2,0.896 -2,2v10c0,1.104 0.895,2 2,2c1.105,0 2,-0.896 2,-2v-10c0,-1.104 -0.895,-2 -2,-2z" fill="#472b29"></path></g><g fill="#472b29"><path d="M64,46.25c-0.138,0 -0.25,-0.112 -0.25,-0.25v-2.375c0,-0.138 0.112,-0.25 0.25,-0.25c0.138,0 0.25,0.112 0.25,0.25v2.375c0,0.138 -0.112,0.25 -0.25,0.25z"></path></g><g fill="#472b29"><path d="M64,41.958c-0.138,0 -0.25,-0.112 -0.25,-0.25v-2.319c0,-0.897 -0.125,-1.791 -0.372,-2.655l-0.369,-1.29c-0.038,-0.133 0.039,-0.271 0.171,-0.309c0.133,-0.042 0.271,0.039 0.309,0.172l0.369,1.29c0.26,0.908 0.391,1.848 0.391,2.792v2.319c0.001,0.138 -0.111,0.25 -0.249,0.25z"></path></g><g fill="#472b29"><path d="M62.652,33.534c-0.109,0 -0.209,-0.071 -0.24,-0.182l-0.652,-2.284c-0.038,-0.133 0.039,-0.271 0.171,-0.309c0.132,-0.042 0.271,0.039 0.309,0.172l0.652,2.284c0.038,0.133 -0.039,0.271 -0.171,0.309c-0.023,0.007 -0.046,0.01 -0.069,0.01z"></path></g><g fill="#472b29"><path d="M66.5,69c-0.021,0 -0.042,-0.001 -0.063,-0.004c-0.274,-0.034 -0.468,-0.284 -0.434,-0.558l0.276,-2.213c0.035,-0.273 0.28,-0.469 0.558,-0.435c0.274,0.034 0.468,0.284 0.434,0.558l-0.276,2.213c-0.031,0.253 -0.246,0.439 -0.495,0.439z"></path></g><g fill="#472b29"><path d="M67.045,64.646c-0.021,0 -0.042,-0.001 -0.063,-0.004c-0.274,-0.034 -0.468,-0.284 -0.434,-0.558l0.834,-6.678c0.035,-0.273 0.286,-0.478 0.558,-0.434c0.274,0.034 0.468,0.284 0.434,0.558l-0.834,6.677c-0.031,0.255 -0.247,0.439 -0.495,0.439z"></path></g><g fill="#472b29"><path d="M68.153,55.78c-0.021,0 -0.042,-0.001 -0.063,-0.004c-0.274,-0.034 -0.468,-0.284 -0.434,-0.559l0.348,-2.78c0.035,-0.273 0.286,-0.479 0.558,-0.434c0.274,0.034 0.468,0.284 0.434,0.559l-0.348,2.78c-0.031,0.254 -0.247,0.438 -0.495,0.438z"></path></g></g></g></svg>